<svg width="335" height="30" viewBox="0 0 335 30" fill="none" xmlns="http://www.w3.org/2000/svg">
<path d="M94.72 29L82.64 18.28H9.28V29H0.4V0.68H9.28V9.76H83.04L94.24 0.68H105.56L89.2 13.64L106.32 29H94.72ZM131.118 0.559999H132.398C135.078 0.559999 137.478 0.719999 139.638 1.08C141.798 1.4 143.598 1.84 145.078 2.4C146.518 2.96 147.798 3.64 148.878 4.44C149.998 5.24 150.838 6.04 151.438 6.84C152.078 7.64 152.558 8.52 152.958 9.48C153.318 10.44 153.598 11.28 153.678 12.04C153.798 12.8 153.838 13.56 153.838 14.4V15.52C153.838 16.32 153.798 17.12 153.678 17.88C153.598 18.6 153.318 19.48 152.958 20.44C152.558 21.4 152.078 22.28 151.478 23.12C150.878 23.92 150.038 24.72 148.918 25.56C147.798 26.36 146.518 27.04 145.078 27.64C143.638 28.2 141.838 28.64 139.638 29C137.478 29.36 135.078 29.52 132.398 29.52H131.118C128.438 29.52 126.038 29.36 123.838 29C121.678 28.64 119.838 28.2 118.398 27.64C116.958 27.04 115.678 26.36 114.558 25.56C113.438 24.72 112.598 23.92 111.958 23.12C111.358 22.28 110.878 21.4 110.518 20.44C110.118 19.48 109.878 18.6 109.798 17.88C109.678 17.12 109.638 16.32 109.638 15.52V14.4C109.638 13.56 109.678 12.8 109.798 12.04C109.878 11.32 110.118 10.44 110.518 9.48C110.878 8.52 111.358 7.64 111.958 6.84C112.598 6.04 113.438 5.24 114.558 4.44C115.638 3.64 116.918 2.96 118.358 2.4C119.838 1.84 121.678 1.4 123.838 1.08C126.038 0.719999 128.438 0.559999 131.118 0.559999ZM143.838 15.2V14.68C143.838 13.96 143.758 13.28 143.558 12.68C143.358 12.04 142.998 11.4 142.438 10.72C141.918 10.04 141.198 9.44 140.318 9C139.438 8.52 138.238 8.12 136.758 7.8C135.518 7.52 134.118 7.4 132.558 7.36C132.198 7.32 131.478 7.32 131.238 7.32C123.518 7.48 119.638 9.92 119.638 14.68V15.12C119.638 16 119.798 16.88 120.158 17.68C120.478 18.48 121.078 19.28 121.878 20.08C122.718 20.88 123.958 21.52 125.678 22C127.278 22.44 129.198 22.68 131.398 22.72C131.598 22.72 132.078 22.72 132.398 22.72C134.438 22.64 136.238 22.44 137.718 22C139.438 21.56 140.718 20.92 141.558 20.12C142.398 19.36 142.998 18.56 143.318 17.76C143.678 16.96 143.838 16.08 143.838 15.2ZM159.478 1.04H168.998V22.08H190.238V29.04H159.478V1.04ZM221.71 1.32L236.59 28.96H227.19L224.59 23.92H204.63L202.03 28.96H192.67L207.51 1.32H221.71ZM207.87 17.68H221.39L216.11 7.52H213.11L207.87 17.68ZM240.939 0.959999H261.179C264.019 0.959999 266.619 1.12 268.899 1.48C271.219 1.84 273.139 2.32 274.659 3C276.219 3.68 277.539 4.4 278.619 5.24C279.699 6.04 280.539 6.96 281.139 8C281.699 9.04 282.139 10.04 282.379 11.04C282.659 12.04 282.779 13.08 282.779 14.2V15.36C282.779 16.68 282.619 17.92 282.259 19.08C281.939 20.28 281.299 21.48 280.339 22.72C279.339 24 278.099 25.08 276.579 25.96C275.019 26.84 272.939 27.56 270.299 28.12C267.699 28.72 264.659 29 261.219 29H240.939V0.959999ZM250.499 7.56V22.24H260.459C268.659 22.24 272.739 19.84 272.739 15V14.8C272.739 9.96 268.659 7.56 260.459 7.56H250.499ZM288.369 0.959999H320.569V7.32H297.809V11.48H320.049V17.88H297.809V22.48H321.009V29H288.369V0.959999Z" fill="white"/>
<path d="M334.084 24.36V29.88H325.804V24.36H334.084Z" fill="#00FFFB"/>
</svg>
